<svg width="107" height="28" viewBox="0 0 107 28" fill="none" xmlns="http://www.w3.org/2000/svg">
<path d="M11.846 17.5044C12.2729 17.9247 12.7444 18.4002 13.2278 18.8625C13.3867 19.0149 13.3867 19.1252 13.2278 19.2776C12.7497 19.7399 12.2808 20.2114 11.8132 20.6869C10.7502 21.7622 9.68977 22.844 8.632 23.9324C7.62721 24.9569 6.61586 25.9749 5.61106 27.002C5.32473 27.2949 5.05285 27.6035 4.77834 27.9083C4.6772 28.0212 4.61547 28.0396 4.49069 27.9083C3.61506 27.0169 2.73373 26.1329 1.84671 25.2564C1.2793 24.6956 0.696129 24.1505 0.120837 23.5975C0.088001 23.566 0.0604188 23.5305 0 23.4662C0.241675 23.2376 0.48729 23.0209 0.715831 22.7884C1.78498 21.7079 2.85107 20.6256 3.91409 19.5416C4.90793 18.5285 5.90003 17.514 6.89037 16.4983C7.51032 15.8626 8.12895 15.2247 8.74627 14.5846C8.77637 14.5607 8.80795 14.5388 8.84084 14.5189C9.19285 14.8814 9.54748 15.2466 9.90343 15.6104C10.0912 15.8009 10.2883 15.9821 10.4695 16.1791C10.5825 16.3026 10.6324 16.2435 10.7191 16.1502C11.0264 15.8166 11.3403 15.4935 11.6648 15.1704C11.7014 15.1526 11.742 15.1445 11.7827 15.1468C11.8234 15.1491 11.8628 15.1617 11.8972 15.1835C12.2295 15.4988 12.554 15.8245 12.8692 16.1581C12.8895 16.1892 12.9016 16.2248 12.9043 16.2618C12.9071 16.2988 12.9004 16.3359 12.885 16.3696C12.554 16.7439 12.2112 17.1078 11.846 17.5044ZM7.18589 17.1025C7.21388 17.1415 7.24414 17.1787 7.27652 17.2141C7.73754 17.6541 8.19594 18.0968 8.6609 18.5276C8.80407 18.6589 8.83822 18.7601 8.67141 18.9124C8.35487 19.2014 8.05409 19.5061 7.75199 19.8148C7.4499 20.1234 7.18852 20.4295 6.9035 20.7342C6.79974 20.8445 6.69204 20.8957 6.55675 20.7539C6.29406 20.4833 6.03137 20.2285 5.76211 19.9658L5.07255 19.2789L4.80986 19.4851C5.34969 20.0249 5.84486 20.524 6.3466 21.0153C6.46087 21.1282 6.46481 21.1939 6.3466 21.3082C6.06421 21.5709 5.79363 21.8532 5.52438 22.1317C5.16055 22.5087 4.80066 22.8896 4.3935 23.3138L2.77401 21.6431L2.57699 21.8322L4.16627 23.5043L2.55204 25.1723L2.91849 25.5782L4.56424 23.8576L6.19687 25.5427L6.47006 25.2564L4.76258 23.5594L6.96655 21.6221L8.52299 23.1155L8.7778 22.9224C8.71081 22.8502 8.67272 22.8029 8.63069 22.7622L7.245 21.4395C7.15831 21.3568 7.07819 21.2845 7.2056 21.1597C7.82423 20.5516 8.44681 19.9474 9.04443 19.3209C9.2178 19.141 9.29924 19.1699 9.45554 19.3314C9.91393 19.8043 10.3933 20.2508 10.8767 20.7289L11.1394 20.4571L9.44372 18.8113L11.0199 17.2982L10.614 16.9042L9.10616 18.4908L7.39867 16.8805L7.18589 17.1025Z" fill="white"/>
<path d="M17.18 11.6858C16.8398 12.0523 16.5023 12.4069 16.1752 12.7734C16.0609 12.9047 15.9703 12.9047 15.8521 12.7917C15.4988 12.4437 15.1428 12.0982 14.7764 11.741L15.99 10.5746L14.2904 8.92363C14.6004 8.63993 14.8815 8.37723 15.1468 8.11454C16.2028 7.04452 17.2562 5.97187 18.3069 4.89659C19.2649 3.92026 20.2224 2.94349 21.1795 1.96628C21.7836 1.34633 22.3865 0.725066 22.9789 0.0946095C23.1024 -0.0367356 23.1785 -0.026228 23.2928 0.0946095C24.1899 0.999578 25.0843 1.90455 25.9893 2.80163C26.4897 3.29812 27.0072 3.77884 27.5182 4.26482C27.7507 4.48548 27.7533 4.51569 27.5352 4.73109C27.0375 5.22232 26.5344 5.71093 26.0432 6.20873C25.0484 7.21833 24.0568 8.23144 23.0682 9.24805C22.0498 10.2883 21.0315 11.3286 20.0131 12.3688C19.711 12.6788 19.4172 12.9962 19.1318 13.3211C19.0004 13.4761 18.9085 13.4406 18.7837 13.3119C18.257 12.7642 17.7238 12.2348 17.18 11.6858ZM17.1603 11.0659L18.6773 9.51337L20.3283 11.0659L20.6081 10.8478C20.4566 10.7411 20.3106 10.6266 20.1707 10.505C19.7872 10.1333 19.4142 9.74979 19.0333 9.37546C18.9492 9.29271 18.9479 9.2336 19.0333 9.14692C19.6453 8.52171 20.2561 7.89651 20.859 7.26211C21.0074 7.10581 21.1085 7.11238 21.253 7.26211C21.6562 7.67979 22.0713 8.08696 22.4824 8.49807C22.7214 8.73712 22.7215 8.73712 22.9644 8.4324L21.2701 6.80109C21.5407 6.5476 21.8047 6.31643 22.049 6.06556C22.3931 5.71356 22.7267 5.34973 23.0603 4.9859C23.3151 4.70745 23.3322 4.70351 23.6133 4.95963C23.6474 4.98984 23.6763 5.02531 23.7079 5.05814L24.9911 6.37159L25.2091 6.14437C24.731 5.6492 24.2674 5.15402 23.7827 4.67987C23.6159 4.50912 23.5778 4.47628 23.7473 4.30553C24.242 3.80993 24.738 3.31519 25.2354 2.82133L24.8335 2.40103C24.3514 2.91328 23.8812 3.39794 23.4281 3.89968C23.2337 4.11508 23.2048 4.13347 23.0091 3.93383L21.5643 2.45882L21.32 2.72151L23.0117 4.37121C22.3287 5.03844 21.6786 5.67678 21.0218 6.30855C20.9928 6.33052 20.9588 6.345 20.9228 6.35073C20.8869 6.35645 20.8501 6.35325 20.8156 6.34138C20.6867 6.26369 20.5684 6.16966 20.4636 6.06162C20.0696 5.65576 19.6756 5.24203 19.2618 4.81647L18.9742 5.07916L20.6396 6.6553C20.5083 6.81685 20.4071 6.9679 20.2824 7.09531C19.7399 7.64433 19.1883 8.18416 18.6471 8.73449C18.5447 8.83826 18.4948 8.83169 18.3936 8.73449C17.8945 8.23669 17.3862 7.75072 16.9147 7.2897L16.631 7.49197L18.2557 9.09963C17.8617 9.52519 17.4834 9.95206 17.0867 10.3619C16.7452 10.7191 16.7374 10.7112 17.1577 11.0659H17.1603Z" fill="white"/>
<path d="M104.551 14.9445V10.2069H106.466V16.7833C106.394 16.7833 106.319 16.7951 106.245 16.7951C105.34 16.7951 104.435 16.7951 103.53 16.7951C103.458 16.8001 103.386 16.787 103.321 16.7569C103.256 16.7269 103.199 16.6808 103.156 16.6231C102.695 16.039 102.234 15.4563 101.773 14.8749C101.486 14.5163 101.188 14.1669 100.903 13.807C100.526 13.3316 100.16 12.8495 99.7842 12.3728C99.6884 12.2519 99.5767 12.1429 99.4506 12.005V16.7715H97.5238V10.2042C97.6 10.2042 97.6814 10.1924 97.7615 10.1924C98.6284 10.1924 99.4953 10.2148 100.361 10.1806C100.687 10.1675 100.838 10.333 100.999 10.5418C101.198 10.7966 101.393 11.054 101.594 11.3062C101.927 11.7239 102.262 12.1398 102.599 12.554C102.979 13.0203 103.365 13.4813 103.743 13.9489C103.945 14.1998 104.137 14.4611 104.33 14.7146C104.38 14.7803 104.443 14.8355 104.551 14.9445Z" fill="white"/>
<path d="M96.2984 13.1832C96.2642 13.8123 96.2603 14.2786 96.2091 14.7396C96.1539 15.24 96.0423 15.7418 95.7441 16.1542C95.596 16.3369 95.3958 16.4702 95.1701 16.5364C94.773 16.6675 94.3616 16.7509 93.9447 16.7846C92.9635 16.8398 91.9745 16.8582 90.996 16.8634C90.4031 16.8689 89.8103 16.843 89.2202 16.7859C88.658 16.7295 88.1392 16.5443 87.7439 16.0951C87.5144 15.834 87.3798 15.5031 87.3617 15.156C87.2997 14.3805 87.2812 13.6021 87.3065 12.8246C87.3367 12.2243 87.3538 11.6057 87.6454 11.0449C87.7888 10.7543 88.0414 10.5323 88.3481 10.4275C89.035 10.1767 89.7443 10.1885 90.4575 10.1859C90.7898 10.1859 91.1207 10.1228 91.4517 10.1267C92.2818 10.1359 93.1133 10.1438 93.9473 10.199C94.4503 10.2318 94.956 10.3093 95.4065 10.593C95.6055 10.7155 95.7749 10.8806 95.9026 11.0764C96.0302 11.2721 96.1129 11.4937 96.1447 11.7252C96.2314 12.2545 96.259 12.8022 96.2984 13.1832ZM91.7197 15.1717C92.2096 15.1717 92.7008 15.1862 93.1908 15.1717C93.4981 15.1599 93.8225 15.1179 94.0077 14.8302C94.0952 14.6854 94.1428 14.52 94.1456 14.3508C94.1574 13.7085 94.1627 13.0636 94.1325 12.4227C94.1246 12.3158 94.0831 12.2142 94.014 12.1324C93.9448 12.0505 93.8516 11.9926 93.7477 11.9669C93.5221 11.8926 93.2883 11.8459 93.0515 11.8277C92.2017 11.8106 91.3506 11.8172 90.5008 11.8277C90.3201 11.8218 90.1397 11.8472 89.9675 11.9025C89.7482 11.9853 89.5039 12.0759 89.4645 12.3649C89.4159 12.6297 89.3839 12.8973 89.3686 13.1661C89.3686 13.5601 89.4001 13.9541 89.4159 14.3482C89.4369 14.8604 89.76 15.1757 90.2723 15.177L91.7197 15.1717Z" fill="white"/>
<path d="M51.8984 12.2493H49.961C49.7837 11.7436 49.6248 11.632 49.0876 11.6307C48.7119 11.6307 48.3363 11.6228 47.9606 11.6307C47.4965 11.642 47.0329 11.6609 46.5697 11.6871C46.2321 11.7068 46.0601 11.9065 46.0666 12.2493C46.0666 12.4949 46.282 12.6775 46.5749 12.6814C47.8293 12.6998 49.0836 12.7024 50.338 12.7392C50.7975 12.7334 51.2482 12.8656 51.6317 13.1188C51.7599 13.2071 51.8677 13.3219 51.9479 13.4553C52.0281 13.5887 52.0788 13.7378 52.0967 13.8924C52.163 14.3577 52.1855 14.8283 52.1637 15.2978C52.1216 15.8022 51.9102 16.2698 51.4176 16.5101C51.178 16.6326 50.9163 16.7063 50.648 16.7268C49.7167 16.7689 48.7842 16.7702 47.8529 16.7938C47.7282 16.7938 47.6047 16.8661 47.4812 16.8608C46.7772 16.828 46.0732 16.7925 45.3718 16.7295C45.1281 16.7047 44.8897 16.6422 44.6652 16.5443C44.5091 16.4731 44.3737 16.3635 44.2717 16.2256C44.1697 16.0878 44.1044 15.9262 44.082 15.7562C44.0163 15.4108 44.0032 15.0535 43.9664 14.6897C44.0325 14.6774 44.0991 14.6686 44.1661 14.6634C44.7177 14.6634 45.2707 14.6634 45.8223 14.6634C45.9983 14.6634 46.068 14.7238 46.0706 14.9038C46.0662 14.9556 46.073 15.0078 46.0904 15.0568C46.1079 15.1058 46.1357 15.1505 46.172 15.1878C46.2082 15.2252 46.252 15.2543 46.3004 15.2733C46.3489 15.2923 46.4008 15.3006 46.4528 15.2978C47.2225 15.3228 47.9935 15.3451 48.7632 15.353C49.0653 15.353 49.3687 15.3201 49.6721 15.2991C49.7769 15.2878 49.8754 15.2435 49.9535 15.1727C50.0316 15.102 50.0852 15.0083 50.1068 14.9051C50.1252 14.5794 49.9755 14.3469 49.6944 14.3075C49.4767 14.2765 49.2574 14.2581 49.0377 14.2523C48.6857 14.2431 48.3323 14.2523 47.979 14.2523C47.1174 14.2326 46.2558 14.2195 45.3968 14.1774C45.0592 14.1617 44.6993 14.0999 44.4577 13.8451C44.271 13.6641 44.1409 13.4328 44.0833 13.1792C43.9878 12.6555 43.9648 12.1212 44.015 11.5913C44.107 10.9227 44.3815 10.5786 45.0999 10.3776C45.6923 10.2108 46.2899 10.199 46.8967 10.1911C47.828 10.1806 48.7592 10.1215 49.6891 10.1386C50.1856 10.1478 50.7005 10.1714 51.1681 10.3894C51.2918 10.4397 51.4007 10.5206 51.4846 10.6246C51.8312 11.0905 51.9799 11.6744 51.8984 12.2493Z" fill="white"/>
<path d="M29.2098 13.0676H33.7583C33.7307 13.7033 33.7123 14.3259 33.6716 14.9471C33.6536 15.2161 33.6096 15.4826 33.5403 15.7431C33.4712 16.0415 33.3031 16.3078 33.0635 16.4986C32.8238 16.6894 32.5266 16.7934 32.2203 16.7938C30.8149 16.8201 29.4108 16.87 28.0054 16.8556C27.4438 16.8454 26.8863 16.757 26.3491 16.5929C26.0445 16.5068 25.7749 16.3265 25.5791 16.0778C25.3833 15.8291 25.2712 15.5248 25.259 15.2085C25.1889 14.3185 25.1674 13.4253 25.1946 12.533C25.1972 11.9989 25.3317 11.4738 25.586 11.0041C25.7412 10.7338 25.9904 10.53 26.2861 10.4315C26.8231 10.2572 27.3858 10.175 27.9502 10.1885C28.5728 10.178 29.1967 10.1294 29.8193 10.1294C30.4418 10.1294 31.0539 10.1438 31.666 10.2016C32.0603 10.2405 32.4482 10.3288 32.8205 10.4643C32.9776 10.5291 33.1194 10.6262 33.2366 10.7493C33.3538 10.8724 33.4438 11.0187 33.5009 11.1788C33.6638 11.5991 33.7132 12.0548 33.644 12.5002H31.6988C31.6844 12.4778 31.6699 12.4647 31.6699 12.4529C31.6883 11.9157 31.4795 11.8631 30.9646 11.8342C30.1923 11.7909 29.416 11.8421 28.6424 11.8132C28.3246 11.8014 28.0067 11.762 27.723 11.8973C27.5761 11.9786 27.4595 12.1053 27.3907 12.2585C27.1464 12.7839 27.2804 13.3513 27.2594 13.9016C27.2319 14.1804 27.2711 14.4618 27.3736 14.7225C27.5142 15.0456 27.7677 15.2348 28.0435 15.2361C29.0168 15.2361 29.9913 15.2545 30.9646 15.2361C31.3652 15.2269 31.7106 14.9865 31.6791 14.5097C31.679 14.4436 31.6582 14.3791 31.6195 14.3254C31.5809 14.2717 31.5264 14.2314 31.4637 14.2103C30.8227 13.8985 30.1813 13.5873 29.5395 13.2764C29.4292 13.2239 29.3123 13.1832 29.1993 13.1372L29.2098 13.0676Z" fill="white"/>
<path d="M85.0053 14.205C85.2864 14.3561 85.5701 14.4677 85.7934 14.6437C85.9373 14.777 86.0263 14.9592 86.043 15.1546C86.0745 15.6879 86.0548 16.2251 86.0548 16.7781H83.9861C83.9861 16.6388 83.9861 16.497 83.9861 16.3551C83.9951 16.1116 83.9837 15.8678 83.9519 15.6262C83.8508 15.1205 83.709 15.156 83.2952 15.1336C82.6306 15.0982 81.9621 15.1244 81.2948 15.1244H79.8934V16.7833H77.9061V10.1911H78.1754C80.0694 10.1911 81.9634 10.1819 83.8574 10.1911C84.3499 10.1911 84.8582 10.2253 85.3114 10.4394C85.5082 10.5209 85.6799 10.6533 85.8089 10.8229C85.9378 10.9925 86.0195 11.1933 86.0456 11.4047C86.099 11.9503 86.1205 12.4985 86.1099 13.0466C86.1034 13.5233 85.6923 13.9857 85.2299 14.1144C85.1472 14.1446 85.0684 14.1814 85.0053 14.205ZM79.9013 13.4826H80.185C81.1504 13.4826 82.1171 13.4826 83.0824 13.4826C83.2867 13.4857 83.4906 13.4632 83.6893 13.4156C83.7502 13.4002 83.8072 13.372 83.8563 13.3328C83.9055 13.2936 83.9457 13.2444 83.9743 13.1884C84.023 12.9699 84.052 12.7475 84.061 12.5238C84.1096 12.0746 83.86 11.8842 83.4213 11.8828H79.9013V13.4826Z" fill="white"/>
<path d="M34.9838 10.1911H35.2675C36.7004 10.1911 38.1347 10.1911 39.5677 10.1911C40.0931 10.1911 40.6185 10.2029 41.1439 10.2528C41.5811 10.2744 42.002 10.4262 42.3522 10.6889C42.7279 10.9976 42.8461 11.4612 42.8776 11.9209C42.9105 12.4256 42.9105 12.9319 42.8776 13.4367C42.8556 13.8611 42.7145 14.2708 42.4704 14.6188C42.2826 14.8815 41.9634 14.9983 41.6535 15.0509C41.2458 15.1255 40.8331 15.1694 40.4188 15.1822C39.3838 15.1993 38.3488 15.1822 37.3151 15.1822H37.0393V16.7833H34.9838V10.1911ZM37.0511 11.8802V13.4498C37.0774 13.4629 37.0905 13.4747 37.1037 13.4747C38.161 13.4747 39.2196 13.4853 40.277 13.4747C40.3836 13.4818 40.4895 13.4535 40.5785 13.3945C40.6675 13.3354 40.7346 13.2487 40.7695 13.1477C40.7982 13.0309 40.8166 12.9118 40.8247 12.7918C40.8982 12.2953 40.7393 12.0247 40.2796 11.8907C40.1891 11.8742 40.0967 11.8703 40.0051 11.8789H37.0511V11.8802Z" fill="white"/>
<path d="M53.4194 16.7833V10.1911H53.6664C55.3292 10.1911 56.9933 10.1675 58.6575 10.2029C59.2866 10.2161 59.9434 10.2029 60.5265 10.5418C60.6991 10.6412 60.8487 10.7759 60.9657 10.937C61.0827 11.0982 61.1644 11.2821 61.2056 11.477C61.332 11.9837 61.3764 12.5074 61.3369 13.0282C61.2988 13.5128 61.2384 14.0001 60.9941 14.4362C60.8978 14.6024 60.765 14.7445 60.6057 14.8519C60.4464 14.9593 60.2649 15.0291 60.0747 15.0561C58.9858 15.2742 57.8839 15.1455 56.7911 15.177C56.3471 15.1901 55.9032 15.177 55.4316 15.177V16.7833H53.4194ZM55.4185 13.4879C56.5152 13.4879 57.5883 13.4971 58.6588 13.4774C58.8356 13.4652 59.001 13.3857 59.1211 13.2554C59.2932 13.0531 59.2971 12.772 59.2525 12.5146C59.217 12.2821 59.1435 12.0483 58.8742 11.9787C58.7033 11.928 58.5269 11.898 58.3488 11.8894C57.4609 11.8802 56.5717 11.8894 55.6838 11.8894H55.4211L55.4185 13.4879Z" fill="white"/>
<path d="M13.8176 23.2363C13.5549 22.95 13.2922 22.6505 13.0124 22.3602C12.7327 22.07 12.449 21.7836 12.16 21.5025C12.051 21.3962 11.9984 21.2963 12.1127 21.1689C12.4555 20.7867 12.801 20.4071 13.1451 20.0262C13.3618 19.7859 13.396 19.7859 13.6271 20.0262C13.6954 20.0958 13.7703 20.1576 13.8333 20.2193L19.9947 14.0566L19.4694 13.5877C19.9619 13.1096 20.4282 12.6512 20.905 12.2046C20.9389 12.1856 20.9771 12.1757 21.0159 12.1757C21.0548 12.1757 21.093 12.1856 21.1269 12.2046C21.7416 12.8377 22.3458 13.48 22.9474 14.1144L13.8176 23.2363Z" fill="white"/>
<path d="M60.8391 16.7951C60.9797 16.518 61.0913 16.2855 61.2148 16.0596C61.3724 15.7707 61.5418 15.4869 61.7047 15.1993C61.9779 14.716 62.2524 14.2339 62.5216 13.7545C62.9735 12.9415 63.42 12.1258 63.8706 11.3115C64.0557 10.9766 64.237 10.639 64.4327 10.3106C64.4564 10.2791 64.4866 10.253 64.5213 10.2342C64.556 10.2154 64.5943 10.2043 64.6337 10.2016C65.4541 10.1937 66.2742 10.1937 67.0938 10.2016C67.1245 10.2039 67.1543 10.213 67.1811 10.2283C67.2079 10.2435 67.231 10.2644 67.2488 10.2896C67.5246 10.7861 67.7886 11.2878 68.0631 11.7856C68.356 12.311 68.6594 12.8364 68.9497 13.3736C69.1808 13.7952 69.3962 14.226 69.6261 14.649C69.9728 15.2886 70.3275 15.9243 70.6769 16.5627C70.7137 16.6406 70.7466 16.7204 70.7754 16.8017H68.7435C68.6844 16.8122 68.6235 16.8022 68.5709 16.7732C68.5184 16.7443 68.4773 16.6983 68.4545 16.6428C68.1261 16.0005 67.7781 15.3674 67.4353 14.7317C67.0439 14.0049 66.6498 13.279 66.2532 12.554C66.1152 12.2979 65.9747 12.0431 65.8197 11.7659L64.5063 14.184H66.7746L66.7904 14.2418C66.6971 14.2943 66.6078 14.3561 66.5093 14.3981C65.7015 14.7527 64.8911 15.1034 64.0833 15.4581C63.9767 15.4935 63.8789 15.5513 63.7964 15.6276C63.7139 15.704 63.6488 15.7971 63.6052 15.9007C63.4845 16.1745 63.3417 16.438 63.1784 16.6888C63.1396 16.7397 63.0827 16.7736 63.0194 16.7833C62.3128 16.7978 61.6088 16.7951 60.8391 16.7951Z" fill="white"/>
<path d="M13.8622 7.96219L7.69945 14.1236C7.79271 14.2431 7.88727 14.3797 7.99892 14.5005C8.11056 14.6214 8.05277 14.6792 7.97527 14.7527C7.55672 15.1503 7.13686 15.5469 6.71568 15.9427C6.69335 15.9637 6.66839 15.9808 6.65263 15.9926L4.79541 14.1223L13.9318 4.9951C13.9944 5.09123 14.0647 5.18215 14.1419 5.26699C14.6367 5.75121 15.1358 6.23281 15.6393 6.71178C15.7562 6.8208 15.7706 6.90355 15.6498 7.01388C15.2557 7.3869 14.8538 7.75992 14.4677 8.1395C14.3613 8.24195 14.2851 8.34309 14.1485 8.16577C14.0641 8.08354 13.9675 8.01487 13.8622 7.96219Z" fill="white"/>
<path d="M69.0533 10.2016H76.8789V11.8763H73.9709V16.7833H71.9758V11.8841H69.0533V10.2016Z" fill="white"/>
<path d="M11.1118 13.9922C11.5807 13.5325 12.0549 13.0728 12.5264 12.6013C12.9336 12.1981 13.3381 11.7896 13.7427 11.3837C13.9239 11.2025 13.9791 11.2038 14.1538 11.3837C14.9602 12.1946 15.768 13.0041 16.5771 13.8123C16.7019 13.9371 16.7899 14.0369 16.6204 14.2063C15.7378 15.0785 14.8617 15.9585 13.9843 16.8332C13.9777 16.8388 13.9694 16.8421 13.9607 16.8424L11.1118 13.9922Z" fill="white"/>
</svg>
