<svg xmlns="http://www.w3.org/2000/svg" viewBox="0 0 426.89 106.23"><defs><style>.cls-1{fill:#fff;}</style></defs><g id="Layer_2" data-name="Layer 2"><g id="Слой_1" data-name="Слой 1"><path class="cls-1" d="M55.08,12.31a30,30,0,0,1,28.07,20H96C91.41,13.73,74.27,0,55.08,0S18.75,13.73,14.19,32.33H27A30,30,0,0,1,55.08,12.31Z"/><path class="cls-1" d="M96.12,51.22H83.36a29.71,29.71,0,0,1-56.57,0H14a41.68,41.68,0,0,0,6.13,14.09l25,40.92h19.7L90.14,65.38A40.83,40.83,0,0,0,96.12,51.22Z"/><path class="cls-1" d="M38.36,42.42l5.21-8.63,7.16,24.84a2.39,2.39,0,0,0,2.17,1.73H53a2.39,2.39,0,0,0,2.22-1.48L63.11,40,67.58,52.1a2.38,2.38,0,0,0,2,1.55,2.34,2.34,0,0,0,2.29-1.08l5.71-8.8h30.14a2.41,2.41,0,1,0,0-4.82H76.27a2.39,2.39,0,0,0-2,1.1l-3.82,5.88L65.5,32.6A2.39,2.39,0,0,0,63.29,31h0A2.4,2.4,0,0,0,61,32.51l-7.57,18.2L46.66,27.16a2.39,2.39,0,0,0-2-1.72,2.45,2.45,0,0,0-2.38,1.14l-7.35,12.2L2.39,39a2.41,2.41,0,0,0,0,4.82l33.91-.19A2.41,2.41,0,0,0,38.36,42.42Z"/><path class="cls-1" d="M194,27.36H166.67V57.64h9v-7h18.6A8.59,8.59,0,0,0,202.92,42V35.67C202.25,31,198.6,27.36,194,27.36Zm-.67,12.29A4.39,4.39,0,0,1,189,44H175.68v-9.3H189A4.39,4.39,0,0,1,193.28,39Z"/><rect class="cls-1" x="210.45" y="39.39" width="15.94" height="7.39"/><polygon class="cls-1" points="285.08 27.4 283.94 27.4 275.16 27.4 275.16 53.71 275.16 57.45 303.06 57.45 303.06 50.19 285.08 50.19 285.08 27.4"/><path class="cls-1" d="M270.37,45.77h-8.81v3a1.91,1.91,0,0,1-.55,1.35,1.86,1.86,0,0,1-1.31.56H245.11s0,0-.07-.07a2,2,0,0,1-1.48-1.93V36.2a2.31,2.31,0,0,1,.35-1.15,2.63,2.63,0,0,1,2.25-.84H259.7a2,2,0,0,1,1.4.55,1.77,1.77,0,0,1,.46,1.37v2.2H270c0-.21,0-.43,0-.66s0-.57,0-1a13.68,13.68,0,0,0-.65-4.54,6.19,6.19,0,0,0-2-2.87,8.19,8.19,0,0,0-3.54-1.46,39.93,39.93,0,0,0-7-.44h-9.8q-7.71,0-10.63,2.5t-2.94,8.82v8a14.64,14.64,0,0,0,.79,5.17,8.21,8.21,0,0,0,2.53,3.45A9,9,0,0,0,240.52,57a31.81,31.81,0,0,0,6.62.5h9.8a38.1,38.1,0,0,0,6.88-.46,9,9,0,0,0,3.75-1.52,6.36,6.36,0,0,0,2.18-2.94,13.42,13.42,0,0,0,.7-4.66q0-.63-.06-1.92A1.08,1.08,0,0,1,270.37,45.77Z"/><path class="cls-1" d="M333.7,27.27H315.18A8.79,8.79,0,0,0,306.4,36V48.86a8.78,8.78,0,0,0,8.78,8.73H333.7a8.78,8.78,0,0,0,8.78-8.73V36A8.79,8.79,0,0,0,333.7,27.27Zm-1.14,21.4a2,2,0,0,1-2,2H318.36a2,2,0,0,1-2-2V36a2,2,0,0,1,2-2h12.16a2,2,0,0,1,2,2Z"/><path class="cls-1" d="M375.35,27.36V47.18a3,3,0,0,1-1.06,2,10.14,10.14,0,0,1-4.89.86h-5.26a15.63,15.63,0,0,1-5.37-.66c-1.52-.74-1.5-3.24-1.5-3.24V27.36h-9.86V48.2h0c.07,3.44,1.1,5.84,3.11,7.19s5.91,2.1,11.46,2.1h10.35q7.08,0,10-2.2c1.85-1.41,2.8-3.78,2.87-7.09h0V27.36h-9.85Z"/><path class="cls-1" d="M424,29.81q-2.91-2.41-9.32-2.41H390.14V57.45h27q5.07,0,7.4-2.31t2.33-7.31V37.49Q426.89,32.22,424,29.81Zm-6.66,8.66V48.53a1.93,1.93,0,0,1-.49,1.3,1.63,1.63,0,0,1-1.19.54H400.05V34.48h15.59a1.72,1.72,0,0,1,1.27.54,1.81,1.81,0,0,1,.41,1.32Z"/><path class="cls-1" d="M161.73,37v-.9A8.75,8.75,0,0,0,153,27.34H131.6a8.78,8.78,0,0,0-8.77,8.78V48.93a8.77,8.77,0,0,0,8.77,8.73H153a8.74,8.74,0,0,0,8.73-8.73V40.68H143.92v4.58h8.8v3.57a1.92,1.92,0,0,1-.57,1.38,2,2,0,0,1-1.38.57h-16a2,2,0,0,1-2-2V36a2,2,0,0,1,2-2h16a2,2,0,0,1,2,2v1Z"/></g></g></svg>